<svg xmlns="http://www.w3.org/2000/svg" fill="none" viewBox="0 0 98 98"><path fill="#982EB425" fill-rule="evenodd" d="M41.337 6.923A24.956 24.956 0 0 0 29.96 4.2l-.003.004a25 25 0 0 0-17.734 7.344A25.014 25.014 0 0 0 4.88 29.282c0 4.094.984 7.961 2.722 11.375L.196 48.063a.663.663 0 0 0 0 .942l7.364 7.363a24.971 24.971 0 0 0-2.68 11.293 25 25 0 0 0 7.344 17.734 25.014 25.014 0 0 0 17.734 7.344c4.062 0 7.898-.965 11.293-2.68l6.812 6.813c.258.261.68.261.942 0l6.773-6.774a24.98 24.98 0 0 0 11.211 2.64 25 25 0 0 0 17.734-7.343 25.014 25.014 0 0 0 7.344-17.734c0-4.027-.95-7.836-2.64-11.211l7.444-7.445a.663.663 0 0 0 0-.942l-7.488-7.488a24.952 24.952 0 0 0 2.684-11.297 25 25 0 0 0-7.344-17.734A25.014 25.014 0 0 0 66.989 4.2c-4.067 0-7.903.969-11.297 2.684L49.004.196a.663.663 0 0 0-.94 0l-6.727 6.727Zm6.355 4.62a25.115 25.115 0 0 0-5.136-3.956h-.005l5.981-5.98 5.938 5.937a25.143 25.143 0 0 0-5.997 4.816c-.254-.277-.515-.55-.78-.816Zm41.036 30.255a25.273 25.273 0 0 1-4 5.215 24.4 24.4 0 0 1-1.59 1.457c.55.465 1.078.949 1.59 1.457a25.257 25.257 0 0 1 4.046 5.293l6.688-6.688-6.734-6.734Zm-39.47 43.598a25.257 25.257 0 0 0 5.293 4.047h.004l-6.015 6.016-6.059-6.06a25.296 25.296 0 0 0 5.996-4.82c.254.278.516.551.782.817ZM8.224 55.146a24.952 24.952 0 0 1 4.004-5.215 24.4 24.4 0 0 1 1.59-1.457c-.55-.465-1.078-.95-1.59-1.457A25.186 25.186 0 0 1 8.27 41.88l-6.66 6.66 6.613 6.614v-.008ZM40.34 7.92 8.602 39.658A23.623 23.623 0 0 1 6.22 29.28a23.67 23.67 0 0 1 6.953-16.789 23.68 23.68 0 0 1 16.79-6.953c3.718 0 7.242.856 10.378 2.383Zm16.352-.035 31.7 31.699a23.676 23.676 0 0 0 2.343-10.301 23.68 23.68 0 0 0-6.953-16.79 23.67 23.67 0 0 0-16.789-6.952c-3.691 0-7.183.84-10.3 2.344Zm.083 81.218L88.427 57.45a23.656 23.656 0 0 1 2.305 10.214 23.67 23.67 0 0 1-6.954 16.79 23.68 23.68 0 0 1-16.788 6.953c-3.657 0-7.122-.829-10.215-2.305ZM40.25 89.06 8.555 57.365a23.671 23.671 0 0 0-2.343 10.297 23.68 23.68 0 0 0 6.953 16.789 23.67 23.67 0 0 0 16.789 6.953c3.691 0 7.183-.84 10.297-2.344ZM9.243 40.896 41.575 8.564l-.004.005a23.821 23.821 0 0 1 6.015 4.812 24.97 24.97 0 0 0-5.683 15.898c0 6.035 2.132 11.57 5.683 15.898-.273.305-.554.602-.843.89a24.69 24.69 0 0 1-1.711 1.552 24.953 24.953 0 0 0-15.078-5.04 24.963 24.963 0 0 0-15.078 5.04 23.73 23.73 0 0 1-5.633-6.723ZM9.2 56.123l.004.004-.004-.004Zm.004.004L41.497 88.42a23.857 23.857 0 0 0 6.097-4.86 24.978 24.978 0 0 1-5.683-15.898 24.97 24.97 0 0 1 5.683-15.898 22.958 22.958 0 0 0-2.555-2.441 24.963 24.963 0 0 1-15.077 5.04 24.953 24.953 0 0 1-15.078-5.04 23.86 23.86 0 0 0-5.68 6.804Zm78.586.074L55.528 88.463v-.001a23.929 23.929 0 0 1-6.172-4.903 24.97 24.97 0 0 0 5.684-15.898c0-6.034-2.133-11.57-5.684-15.898.274-.304.555-.601.844-.89a24.668 24.668 0 0 1 1.711-1.551 24.953 24.953 0 0 0 15.078 5.04 24.963 24.963 0 0 0 15.078-5.04 22.958 22.958 0 0 1 1.711 1.55 23.635 23.635 0 0 1 4.012 5.329Zm-.043-15.383-.005-.005.005.005Zm-.005-.005L55.45 8.521a23.85 23.85 0 0 0-6.094 4.855 24.978 24.978 0 0 1 5.684 15.898 24.968 24.968 0 0 1-5.684 15.898 22.958 22.958 0 0 0 2.555 2.441 24.963 24.963 0 0 1 15.078-5.038c5.66 0 10.883 1.875 15.078 5.039a23.728 23.728 0 0 0 5.675-6.8ZM49.255 47.01c.512.508 1.039.992 1.59 1.457a24.4 24.4 0 0 0-2.371 2.274c-.254-.278-.516-.551-.781-.817a26.682 26.682 0 0 0-1.59-1.457 24.4 24.4 0 0 0 2.37-2.273c.255.277.516.55.782.816Zm31.723 1.457a23.643 23.643 0 0 0-13.988-4.554 23.652 23.652 0 0 0-13.988 4.554 23.643 23.643 0 0 0 13.988 4.555c5.23 0 10.062-1.691 13.988-4.555Zm-37.73 19.188a23.635 23.635 0 0 1 5.23-14.867 23.626 23.626 0 0 1 5.23 14.867 23.635 23.635 0 0 1-5.23 14.867 23.626 23.626 0 0 1-5.23-14.867Zm.703-19.188a23.643 23.643 0 0 0-13.989-4.554 23.652 23.652 0 0 0-13.987 4.554 23.643 23.643 0 0 0 13.987 4.555c5.23 0 10.063-1.691 13.988-4.555Zm-.704-19.192a23.635 23.635 0 0 1 5.23-14.867 23.625 23.625 0 0 1 5.231 14.867 23.635 23.635 0 0 1-5.23 14.867 23.625 23.625 0 0 1-5.23-14.867Z" clip-rule="evenodd"/></svg>